<svg width="31" height="13" viewBox="0 0 31 13" fill="none" xmlns="http://www.w3.org/2000/svg">
<path d="M5.41127 7.33716C4.11948 7.33716 3.07202 8.38431 3.07202 9.67641C3.07202 9.77601 3.08017 9.87406 3.0927 9.97022C3.23772 11.1232 4.21909 12.015 5.41095 12.015C6.63508 12.015 7.63869 11.0741 7.74049 9.87562C7.74581 9.81016 7.7502 9.74344 7.7502 9.67609C7.75051 8.38431 6.70336 7.33716 5.41127 7.33716ZM4.24039 8.79496L4.71714 9.27202C4.68017 9.3356 4.65104 9.4042 4.63225 9.4775H3.96004C3.9945 9.22315 4.09192 8.99073 4.24039 8.79496ZM3.95691 9.88251H4.63444C4.65355 9.95456 4.68174 10.0228 4.71933 10.0855L4.24133 10.5632C4.09317 10.369 3.99356 10.1365 3.95691 9.88251ZM5.20892 11.1295C4.95551 11.0941 4.72528 10.9948 4.53045 10.8479L5.00594 10.3721C5.06859 10.4088 5.13718 10.4357 5.20892 10.4545V11.1295ZM5.20892 8.89833C5.13531 8.91775 5.06639 8.94657 5.00218 8.98447L4.52575 8.50804C4.72152 8.35925 4.95394 8.26089 5.20892 8.2255V8.89833ZM5.61393 8.22487C5.8689 8.26027 6.10164 8.35925 6.2971 8.50772L5.82098 8.98415C5.75708 8.94625 5.68754 8.91743 5.61424 8.89801L5.61393 8.22487ZM5.61393 11.1289V10.4548C5.68597 10.4357 5.75395 10.4091 5.81659 10.3721L6.2924 10.8479C6.09757 10.9948 5.86702 11.0935 5.61393 11.1289ZM6.58245 10.5654L6.10289 10.0852C6.14048 10.0222 6.17086 9.95487 6.18997 9.88283H6.86217C6.82646 10.1359 6.73093 10.3702 6.58245 10.5654ZM6.19091 9.4775C6.1718 9.4042 6.14298 9.3356 6.10602 9.27202L6.58339 8.79496C6.73093 8.99073 6.82834 9.22315 6.86343 9.47781H6.19091V9.4775Z" fill="white"/>
<path d="M24.8348 7.33716C23.5431 7.33716 22.4956 8.38431 22.4956 9.67641C22.4956 9.77601 22.5038 9.87406 22.5163 9.97022C22.6613 11.1232 23.6427 12.015 24.8342 12.015C26.0583 12.015 27.062 11.0741 27.1641 9.87562C27.1694 9.81016 27.1738 9.74344 27.1738 9.67609C27.1744 8.38431 26.1269 7.33716 24.8348 7.33716ZM23.664 8.79496L24.1404 9.27202C24.1034 9.3356 24.0743 9.4042 24.0555 9.4775H23.3833C23.4181 9.22315 23.5155 8.99073 23.664 8.79496ZM23.3808 9.88251H24.0583C24.0774 9.95456 24.1056 10.0228 24.1432 10.0855L23.6655 10.5632C23.5168 10.369 23.4168 10.1365 23.3808 9.88251ZM24.6325 11.1295C24.3791 11.0941 24.1489 10.9948 23.954 10.8479L24.4295 10.3721C24.4922 10.4088 24.5608 10.4357 24.6325 10.4545V11.1295ZM24.6325 8.89833C24.5589 8.91775 24.49 8.94657 24.4258 8.98447L23.9493 8.50804C24.1451 8.35925 24.3772 8.26089 24.6325 8.2255V8.89833ZM25.0378 8.22487C25.2928 8.26027 25.5255 8.35925 25.721 8.50772L25.2446 8.98415C25.1807 8.94625 25.1111 8.91681 25.0378 8.89801V8.22487ZM25.0378 11.1289V10.4548C25.1099 10.4357 25.1778 10.4091 25.2405 10.3721L25.7163 10.8479C25.5215 10.9948 25.2906 11.0935 25.0378 11.1289ZM26.006 10.5654L25.5265 10.0858C25.5641 10.0225 25.5948 9.9555 25.6136 9.88314H26.2858C26.25 10.1359 26.1548 10.3702 26.006 10.5654ZM25.6145 9.4775C25.5954 9.4042 25.5669 9.3356 25.5296 9.27202L26.0067 8.79496C26.1545 8.99073 26.2516 9.22315 26.287 9.47781H25.6145V9.4775Z" fill="white"/>
<path d="M30.4517 6.12619V4.39525C30.4517 4.11678 30.2494 3.88092 29.9743 3.838C29.3143 3.73464 28.1444 3.53949 27.6188 3.37755C26.8652 3.14513 23.9533 1.91223 22.945 1.68075C21.9364 1.44927 17.3888 0.21324 13.0333 1.72304C12.2962 1.97832 8.98065 3.5633 7.03107 4.38742C6.45691 4.39995 0.773874 5.58461 0.471289 6.39651C0.168703 7.20873 0.0737925 7.60278 0.0180365 7.80889C-0.0377194 8.015 0.0180365 9.00138 0.440278 9.68831C0.870664 9.93169 1.69917 10.0952 2.65705 10.2048C2.64608 10.1463 2.63418 10.0886 2.62666 10.0294C2.61006 9.90287 2.60223 9.78729 2.60223 9.67703C2.60223 8.12808 3.86206 6.86762 5.41133 6.86762C6.96059 6.86762 8.22043 8.12777 8.22043 9.67703C8.22043 9.75659 8.2151 9.83553 8.20915 9.91321C8.19443 10.0871 8.1631 10.2559 8.11769 10.4185C8.11988 10.4185 8.1252 10.4185 8.1252 10.4185L22.0692 10.1378C22.0629 10.1018 22.0548 10.0661 22.0501 10.0294C22.0335 9.9035 22.0257 9.7876 22.0257 9.67703C22.0257 8.12808 23.2855 6.86793 24.8348 6.86793C26.384 6.86793 27.6442 8.12777 27.6442 9.67703C27.6442 9.68298 27.6435 9.68799 27.6432 9.69363L27.7027 9.68862L30.0868 9.23975C30.0868 9.23975 30.9999 8.75361 30.9999 7.4161C31.0002 6.524 30.4517 6.12619 30.4517 6.12619ZM16.6195 4.48515L11.412 4.64459C11.5078 3.86432 11.0458 3.68922 11.0458 3.68922C13.116 1.81011 17.2883 1.74653 17.2883 1.74653L16.6195 4.48515ZM22.4639 4.24678L17.7184 4.40621L18.1484 1.74684C20.6011 1.71489 22.0022 2.25616 22.0022 2.25616L22.7029 3.38694L22.4639 4.24678ZM25.1392 4.23049H23.8171L22.4952 2.41529C23.4869 2.80996 24.2806 3.199 24.7533 3.44489C25.0402 3.59399 25.1969 3.91255 25.1392 4.23049Z" fill="white"/>
</svg>
